<svg xmlns="http://www.w3.org/2000/svg" width="100" height="100" viewBox="0 0 100 100" fill="none">
  <rect width="100" height="100" rx="20" fill="#FF9F40"/>
  <path d="M50 75C60.4934 75 69.1836 67.9644 71.2966 58.5M50 75C39.5066 75 30.8164 67.9644 28.7034 58.5M50 75V58.5M71.2966 58.5H50M71.2966 58.5C72.4149 55.8686 73 52.9971 73 50C73 38.9543 64.0457 30 53 30C48.786 30 44.8744 31.2428 41.6171 33.3944M28.7034 58.5H50M28.7034 58.5C27.5851 55.8686 27 52.9971 27 50C27 38.9543 35.9543 30 47 30C47.344 30 47.6846 30.0116 48.0213 30.0345M41.6171 33.3944C42.6498 32.7874 43.7495 32.2783 44.9 31.8797M41.6171 33.3944C38.8992 35.2218 36.7266 37.7605 35.2937 40.75M44.9 31.8797C45.8687 31.5415 46.8865 31.2999 47.9372 31.1691M44.9 31.8797C41.5121 32.9621 38.5629 35.0131 36.413 37.7M48.0213 30.0345C48.345 30.0116 48.6709 30 49 30C51.0452 30 53.0068 30.3453 54.8295 30.9848M48.0213 30.0345C47.9932 30.0356 47.9652 30.0368 47.9372 31.1691M47.9372 31.1691C47.9043 31.1729 47.8714 31.1768 47.8385 31.1809" stroke="white" stroke-width="3" stroke-linecap="round"/>
  <circle cx="36" cy="50" r="3" fill="white"/>
  <circle cx="64" cy="50" r="3" fill="white"/>
  <path d="M43 65C43 65 45 68 50 68C55 68 57 65 57 65" stroke="white" stroke-width="2" stroke-linecap="round"/>
</svg> 