<svg xmlns="http://www.w3.org/2000/svg" width="100" height="100" viewBox="0 0 100 100" fill="none">
  <rect width="100" height="100" rx="20" fill="#E74C3C"/>
  <path d="M50 30C45 30 35 40 35 50C35 60 45 75 50 75C55 75 65 60 65 50C65 40 55 30 50 30Z" fill="white"/>
  <path d="M50 30C48 30 42 30 38 40" stroke="white" stroke-width="2" stroke-linecap="round"/>
  <path d="M50 30C52 30 58 30 62 40" stroke="white" stroke-width="2" stroke-linecap="round"/>
  <path d="M35 50C35 50 40 50 50 65C60 50 65 50 65 50" stroke="#E74C3C" stroke-width="3" stroke-linecap="round"/>
  <path d="M40 45H60M40 55H60" stroke="#E74C3C" stroke-width="3" stroke-linecap="round"/>
</svg> 