<svg xmlns="http://www.w3.org/2000/svg" width="100" height="100" viewBox="0 0 100 100" fill="none">
  <rect width="100" height="100" rx="20" fill="#4BB4E6"/>
  <path d="M35 30H65C67.7614 30 70 32.2386 70 35V65C70 67.7614 67.7614 70 65 70H35C32.2386 70 30 67.7614 30 65V35C30 32.2386 32.2386 30 35 30Z" fill="white"/>
  <path d="M45 50H55M50 45V55" stroke="#4BB4E6" stroke-width="5" stroke-linecap="round"/>
  <path d="M42 25V35M58 25V35" stroke="#4BB4E6" stroke-width="3" stroke-linecap="round"/>
  <path d="M35 42H25M35 58H25" stroke="#4BB4E6" stroke-width="3" stroke-linecap="round"/>
  <path d="M65 42H75M65 58H75" stroke="#4BB4E6" stroke-width="3" stroke-linecap="round"/>
  <path d="M42 65V75M58 65V75" stroke="#4BB4E6" stroke-width="3" stroke-linecap="round"/>
</svg> 