<svg xmlns="http://www.w3.org/2000/svg" width="100" height="100" viewBox="0 0 100 100" fill="none">
  <rect width="100" height="100" rx="20" fill="#9B59B6"/>
  <path d="M50 30C40 30 35 40 35 45C35 50 37 53 35 60C33 67 40 70 45 70C50 70 50 75 55 75C60 75 65 70 65 65C65 60 67 55 65 50C63 45 67 45 65 40C63 35 60 30 50 30Z" fill="white"/>
  <path d="M35 45C35 45 40 47 45 45" stroke="#9B59B6" stroke-width="2" stroke-linecap="round"/>
  <path d="M35 55C35 55 40 57 45 55" stroke="#9B59B6" stroke-width="2" stroke-linecap="round"/>
  <path d="M55 40C55 40 60 42 65 40" stroke="#9B59B6" stroke-width="2" stroke-linecap="round"/>
  <path d="M55 50C55 50 60 52 65 50" stroke="#9B59B6" stroke-width="2" stroke-linecap="round"/>
  <path d="M55 60C55 60 60 62 65 60" stroke="#9B59B6" stroke-width="2" stroke-linecap="round"/>
  <path d="M45 65C45 65 50 67 55 65" stroke="#9B59B6" stroke-width="2" stroke-linecap="round"/>
  <path d="M45 75C45 75 50 77 55 75" stroke="#9B59B6" stroke-width="2" stroke-linecap="round"/>
</svg> 