<svg xmlns="http://www.w3.org/2000/svg" width="100" height="100" viewBox="0 0 100 100" fill="none">
  <rect width="100" height="100" rx="20" fill="#52B788"/>
  <path d="M40 25H60V40C60 40 65 42 65 50C65 58 60 60 60 60V75H40V60C40 60 35 58 35 50C35 42 40 40 40 40V25Z" fill="white"/>
  <path d="M45 45H55M50 40V50" stroke="#52B788" stroke-width="3" stroke-linecap="round"/>
  <path d="M40 25H60V40C60 40 65 42 65 50C65 58 60 60 60 60V75H40V60C40 60 35 58 35 50C35 42 40 40 40 40V25Z" stroke="#52B788" stroke-width="2"/>
  <circle cx="50" cy="65" r="5" fill="#52B788"/>
</svg> 