<svg xmlns="http://www.w3.org/2000/svg" width="100" height="100" viewBox="0 0 100 100" fill="none">
  <rect width="100" height="100" rx="20" fill="#3498DB"/>
  <path d="M50 30V45" stroke="white" stroke-width="4" stroke-linecap="round"/>
  <path d="M45 45H55" stroke="white" stroke-width="4" stroke-linecap="round"/>
  <path d="M40 45C40 45 35 47 35 55C35 63 40 70 35 75" stroke="white" stroke-width="4" stroke-linecap="round"/>
  <path d="M60 45C60 45 65 47 65 55C65 63 60 70 65 75" stroke="white" stroke-width="4" stroke-linecap="round"/>
  <path d="M38 60C38 60 40 65 38 70" stroke="white" stroke-width="3" stroke-linecap="round"/>
  <path d="M43 60C43 60 45 65 43 70" stroke="white" stroke-width="3" stroke-linecap="round"/>
  <path d="M57 60C57 60 55 65 57 70" stroke="white" stroke-width="3" stroke-linecap="round"/>
  <path d="M62 60C62 60 60 65 62 70" stroke="white" stroke-width="3" stroke-linecap="round"/>
</svg> 